<?xml version="1.0" encoding="UTF-8" standalone="no"?>
<!DOCTYPE svg PUBLIC "-//W3C//DTD SVG 1.1//EN" "http://www.w3.org/Graphics/SVG/1.1/DTD/svg11.dtd">
<svg width="100%" height="100%" viewBox="0 0 2000 1200" version="1.1" xmlns="http://www.w3.org/2000/svg" xmlns:xlink="http://www.w3.org/1999/xlink" xml:space="preserve" xmlns:serif="http://www.serif.com/" style="fill-rule:evenodd;clip-rule:evenodd;stroke-linecap:round;stroke-linejoin:round;stroke-miterlimit:1.5;">
    <g transform="matrix(0.439764,0,0,0.439764,353.179,375.204)">
        <text x="671.889px" y="656.743px" style="font-family:'ArialMT', 'Arial', sans-serif;font-size:255.087px;">My Backend</text>
    </g>
    <g transform="matrix(0.316477,-0.465507,0.411937,0.280057,340.786,871.727)">
        <path d="M298.335,822.442L298.335,849.889L298.335,765.435L298.335,792.883L752.012,792.883L752.012,765.435L789.38,807.662L752.012,849.889L752.012,822.442L298.335,822.442Z" style="stroke:black;stroke-width:1.88px;"/>
    </g>
    <g transform="matrix(-0.31602,0.465818,-0.412211,-0.279652,1167.07,805.232)">
        <path d="M298.335,822.442L298.335,849.889L298.335,765.435L298.335,792.883L752.012,792.883L752.012,765.435L789.38,807.662L752.012,849.889L752.012,822.442L298.335,822.442Z"/>
    </g>
    <g transform="matrix(-0.236893,-0.510624,0.451861,-0.209631,135.767,1278.7)">
        <path d="M298.335,822.442L298.335,849.889L298.335,765.435L298.335,792.883L752.012,792.883L752.012,765.435L789.38,807.662L752.012,849.889L752.012,822.442L298.335,822.442Z"/>
    </g>
    <g transform="matrix(0.225607,0.51571,-0.456362,0.199644,478.243,412.943)">
        <path d="M298.335,822.442L298.335,849.889L298.335,765.435L298.335,792.883L752.012,792.883L752.012,765.435L789.38,807.662L752.012,849.889L752.012,822.442L298.335,822.442Z"/>
    </g>
    <g transform="matrix(0.562899,2.77556e-17,0,0.49812,1140.02,153.504)">
        <path d="M298.335,822.442L298.335,849.889L298.335,765.435L298.335,792.883L752.012,792.883L752.012,765.435L789.38,807.662L752.012,849.889L752.012,822.442L298.335,822.442Z"/>
    </g>
    <g transform="matrix(-0.562848,0.00760138,-0.00672661,-0.498075,1754.2,1068.03)">
        <path d="M298.335,822.442L298.335,849.889L298.335,765.435L298.335,792.883L752.012,792.883L752.012,765.435L789.38,807.662L752.012,849.889L752.012,822.442L298.335,822.442Z"/>
    </g>
    <g transform="matrix(4.06811e-17,-0.389012,0.49812,4.30183e-17,652.315,650.77)">
        <path d="M298.335,822.442L298.335,849.889L298.335,765.435L298.335,792.883L735.309,792.883L735.309,765.435L789.38,807.662L735.309,849.889L735.309,822.442L298.335,822.442Z"/>
    </g>
    <g transform="matrix(-4.68385e-18,0.380495,-0.49812,3.0598e-17,1278.69,239.278)">
        <path d="M298.335,822.442L298.335,849.889L298.335,765.435L298.335,792.883L734.099,792.883L734.099,765.435L789.38,807.662L734.099,849.889L734.099,822.442L298.335,822.442Z"/>
    </g>
    <g transform="matrix(0.846669,0,0,0.846669,-98.1984,130.391)">
        <text x="153.021px" y="616.656px" style="font-family:'ArialMT', 'Arial', sans-serif;font-size:154.049px;">Client</text>
    </g>
    <g transform="matrix(0.520167,0,0,0.520167,901.874,226.361)">
        <text x="1423.46px" y="576.477px" style="font-family:'ArialMT', 'Arial', sans-serif;font-size:215.373px;">NASA</text>
        <text x="1423.46px" y="798.895px" style="font-family:'ArialMT', 'Arial', sans-serif;font-size:215.373px;">APOD</text>
        <text x="1423.46px" y="1021.31px" style="font-family:'ArialMT', 'Arial', sans-serif;font-size:215.373px;">API</text>
    </g>
    <g transform="matrix(1,0,0,1,0,28)">
        <path d="M639.852,666.895L1274.85,666.895L1274.85,544.983L639.964,544.983L639.852,666.895Z" style="fill:none;stroke:rgb(0,41,222);stroke-width:8.33px;"/>
    </g>
    <path d="M325.049,971.387L758.519,971.387L758.519,1107.01L322.402,1107.01L325.049,971.387Z" style="fill:none;stroke:rgb(140,0,2);stroke-width:8.33px;"/>
    <g transform="matrix(0.738512,0,0,0.738512,100.797,381.518)">
        <text x="309.16px" y="960.912px" style="font-family:'ArialMT', 'Arial', sans-serif;font-size:179.218px;">My <tspan x="587.963px 707.499px " y="960.912px 960.912px ">AP</tspan>I</text>
    </g>
    <g transform="matrix(0.29643,0.627355,-0.627355,0.29643,704.003,273.696)">
        <text x="358.221px" y="760.966px" style="font-family:'ArialMT', 'Arial', sans-serif;font-size:78.412px;">Response</text>
    </g>
    <g transform="matrix(0.263015,0.610782,-0.610782,0.263015,348.986,483.674)">
        <text x="290.681px" y="350.841px" style="font-family:'ArialMT', 'Arial', sans-serif;font-size:78.412px;">Request</text>
    </g>
    <path d="M19.784,519.18L397.085,519.18L397.085,673.118L14.766,673.118L19.784,519.18Z" style="fill:none;stroke:rgb(42,137,60);stroke-width:8.33px;"/>
    <path d="M1608.74,397.547L1970.79,397.547L1970.79,794.127L1611.72,794.127L1608.74,397.547Z" style="fill:none;stroke:rgb(151,34,156);stroke-width:8.33px;"/>
    <g transform="matrix(0.458728,-0.669948,0.669948,0.458728,-534.91,1219.62)">
        <text x="1090.63px" y="933.408px" style="font-family:'ArialMT', 'Arial', sans-serif;font-size:78.412px;">Internal</text>
        <text x="1090.63px" y="1014.38px" style="font-family:'ArialMT', 'Arial', sans-serif;font-size:78.412px;">Response</text>
    </g>
    <g transform="matrix(0.785817,-1.16242,1.16242,0.785817,-1292.83,1624.17)">
        <text x="1239.82px" y="944.591px" style="font-family:'ArialMT', 'Arial', sans-serif;font-size:39.236px;">Internal</text>
        <text x="1239.82px" y="985.111px" style="font-family:'ArialMT', 'Arial', sans-serif;font-size:39.236px;">Request</text>
    </g>
    <g transform="matrix(5.11904e-17,-0.836002,0.836002,5.11904e-17,21.8167,1487.45)">
        <text x="1114.11px" y="998.964px" style="font-family:'ArialMT', 'Arial', sans-serif;font-size:39.236px;">Retrieve Data</text>
    </g>
    <g transform="matrix(5.7666e-17,-0.941757,0.941757,5.7666e-17,92.5006,1592.37)">
        <text x="1110.13px" y="1006.62px" style="font-family:'ArialMT', 'Arial', sans-serif;font-size:39.236px;">Store Data</text>
    </g>
    <g transform="matrix(6.12323e-17,-1,1,6.12323e-17,146.077,1682.36)">
        <text x="1145.82px" y="950.87px" style="font-family:'ArialMT', 'Arial', sans-serif;font-size:39.236px;">Edit Data</text>
    </g>
    <g transform="matrix(1.21484,0,0,1.29748,485.416,92.6486)">
        <ellipse cx="396.591" cy="145.436" rx="159.98" ry="47.22" style="fill:white;stroke:black;stroke-width:9.95px;"/>
    </g>
    <g transform="matrix(1.13249,0,0,1.13249,-6.28714,-533.096)">
        <text x="1185.15px" y="953.407px" style="font-family:'ArialMT', 'Arial', sans-serif;font-size:39.236px;">Get picture</text>
        <text x="1185.15px" y="993.926px" style="font-family:'ArialMT', 'Arial', sans-serif;font-size:39.236px;">with Data</text>
    </g>
    <g transform="matrix(1.07051,0,0,1.07051,-4.328,-367.137)">
        <text x="1243.63px" y="960.449px" style="font-family:'ArialMT', 'Arial', sans-serif;font-size:39.236px;">Respond with</text>
        <text x="1243.63px" y="1000.97px" style="font-family:'ArialMT', 'Arial', sans-serif;font-size:39.236px;">Picture &amp; Data</text>
    </g>
    <g transform="matrix(1.21484,0,0,1.29748,489.944,26.0859)">
        <ellipse cx="396.591" cy="145.436" rx="159.98" ry="47.22" style="fill:white;stroke:black;stroke-width:9.95px;"/>
    </g>
    <g transform="matrix(1.21484,0,0,1.29748,491.873,-41.2695)">
        <ellipse cx="396.591" cy="145.436" rx="159.98" ry="47.22" style="fill:white;stroke:black;stroke-width:9.95px;"/>
    </g>
    <g transform="matrix(1.21484,0,0,1.29748,491.178,-110.06)">
        <ellipse cx="396.591" cy="145.436" rx="159.98" ry="47.22" style="fill:white;stroke:black;stroke-width:9.95px;"/>
    </g>
    <g transform="matrix(1.21484,0,0,1.29748,483.853,-74.7079)">
        <path d="M242.64,118.189L241.05,272.531" style="fill:none;stroke:black;stroke-width:13.26px;"/>
    </g>
    <g transform="matrix(1.21484,0,0,1.29748,483.853,-74.7079)">
        <path d="M562.6,118.189L561.001,268.791" style="fill:none;stroke:black;stroke-width:9.95px;"/>
    </g>
    <g transform="matrix(0.683126,0,0,0.575048,300.521,98.5997)">
        <rect x="690.468" y="136.09" width="565.442" height="141.328" style="fill:white;stroke:black;stroke-width:13.2px;"/>
    </g>
    <g transform="matrix(0.951236,0,0,0.951236,397.131,30.0769)">
        <text x="411.329px" y="226.996px" style="font-family:'ArialMT', 'Arial', sans-serif;font-size:88.734px;">Database</text>
    </g>
</svg>
